<mxfile host="app.diagrams.net" modified="2020-09-28T06:32:23.648Z" agent="5.0 (Windows NT 10.0; Win64; x64) AppleWebKit/537.36 (KHTML, like Gecko) Chrome/85.0.4183.121 Safari/537.36" etag="6Gq4jDwg2z72ApzXRPB_" version="13.7.5" type="github">
  <diagram id="prtHgNgQTEPvFCAcTncT" name="Page-1">
    <mxGraphModel dx="1234" dy="469" grid="1" gridSize="10" guides="1" tooltips="1" connect="1" arrows="1" fold="1" page="1" pageScale="1" pageWidth="827" pageHeight="1169" math="0" shadow="0">
      <root>
        <mxCell id="0" />
        <mxCell id="1" parent="0" />
        <mxCell id="o45a5cGLSc5WuYnk0j1G-1" value="Wafer WO +&lt;br&gt;11" style="rounded=1;whiteSpace=wrap;html=1;" vertex="1" parent="1">
          <mxGeometry x="390" y="120" width="120" height="60" as="geometry" />
        </mxCell>
        <mxCell id="o45a5cGLSc5WuYnk0j1G-2" value="WIP Inline + -&lt;br&gt;Lot: ABC&lt;br&gt;Wafer:01,02,03" style="rounded=1;whiteSpace=wrap;html=1;" vertex="1" parent="1">
          <mxGeometry x="542" y="120" width="120" height="60" as="geometry" />
        </mxCell>
        <mxCell id="o45a5cGLSc5WuYnk0j1G-3" value="WIP Inline +&lt;br&gt;Lot: ABC&lt;br&gt;Wafer:04,05,06" style="rounded=1;whiteSpace=wrap;html=1;" vertex="1" parent="1">
          <mxGeometry x="692" y="120" width="120" height="60" as="geometry" />
        </mxCell>
        <mxCell id="o45a5cGLSc5WuYnk0j1G-4" style="rounded=0;orthogonalLoop=1;jettySize=auto;html=1;entryX=0.5;entryY=1;entryDx=0;entryDy=0;dashed=1;" edge="1" parent="1" source="o45a5cGLSc5WuYnk0j1G-6" target="o45a5cGLSc5WuYnk0j1G-1">
          <mxGeometry relative="1" as="geometry" />
        </mxCell>
        <mxCell id="o45a5cGLSc5WuYnk0j1G-5" value="woType, woOid" style="edgeLabel;html=1;align=center;verticalAlign=middle;resizable=0;points=[];" vertex="1" connectable="0" parent="o45a5cGLSc5WuYnk0j1G-4">
          <mxGeometry x="0.0024" y="-1" relative="1" as="geometry">
            <mxPoint as="offset" />
          </mxGeometry>
        </mxCell>
        <mxCell id="o45a5cGLSc5WuYnk0j1G-6" value="Wafer WO +&lt;br&gt;11" style="rounded=1;whiteSpace=wrap;html=1;" vertex="1" parent="1">
          <mxGeometry x="390" y="320" width="120" height="60" as="geometry" />
        </mxCell>
        <mxCell id="o45a5cGLSc5WuYnk0j1G-7" style="edgeStyle=orthogonalEdgeStyle;rounded=0;orthogonalLoop=1;jettySize=auto;html=1;exitX=0;exitY=0.5;exitDx=0;exitDy=0;entryX=1;entryY=0.5;entryDx=0;entryDy=0;" edge="1" parent="1" source="o45a5cGLSc5WuYnk0j1G-9" target="o45a5cGLSc5WuYnk0j1G-6">
          <mxGeometry relative="1" as="geometry" />
        </mxCell>
        <mxCell id="o45a5cGLSc5WuYnk0j1G-8" style="rounded=0;orthogonalLoop=1;jettySize=auto;html=1;entryX=0.5;entryY=1;entryDx=0;entryDy=0;dashed=1;" edge="1" parent="1" source="o45a5cGLSc5WuYnk0j1G-9" target="o45a5cGLSc5WuYnk0j1G-2">
          <mxGeometry relative="1" as="geometry" />
        </mxCell>
        <mxCell id="o45a5cGLSc5WuYnk0j1G-9" value="WIP Inline + -&lt;br&gt;Lot: ABC&lt;br&gt;Wafer:01, 02, 03" style="rounded=1;whiteSpace=wrap;html=1;" vertex="1" parent="1">
          <mxGeometry x="542" y="320" width="120" height="60" as="geometry" />
        </mxCell>
        <mxCell id="o45a5cGLSc5WuYnk0j1G-10" style="rounded=0;orthogonalLoop=1;jettySize=auto;html=1;exitX=0;exitY=0.5;exitDx=0;exitDy=0;entryX=1;entryY=0.5;entryDx=0;entryDy=0;" edge="1" parent="1" source="o45a5cGLSc5WuYnk0j1G-12" target="o45a5cGLSc5WuYnk0j1G-6">
          <mxGeometry relative="1" as="geometry" />
        </mxCell>
        <mxCell id="o45a5cGLSc5WuYnk0j1G-11" style="edgeStyle=none;rounded=0;orthogonalLoop=1;jettySize=auto;html=1;exitX=0.5;exitY=0;exitDx=0;exitDy=0;entryX=0.5;entryY=1;entryDx=0;entryDy=0;dashed=1;" edge="1" parent="1" source="o45a5cGLSc5WuYnk0j1G-12" target="o45a5cGLSc5WuYnk0j1G-2">
          <mxGeometry relative="1" as="geometry">
            <Array as="points">
              <mxPoint x="612" y="290" />
            </Array>
          </mxGeometry>
        </mxCell>
        <mxCell id="o45a5cGLSc5WuYnk0j1G-12" value="Wafer WO +&lt;br&gt;8" style="rounded=1;whiteSpace=wrap;html=1;" vertex="1" parent="1">
          <mxGeometry x="542" y="430" width="120" height="60" as="geometry" />
        </mxCell>
        <mxCell id="o45a5cGLSc5WuYnk0j1G-13" style="edgeStyle=none;rounded=0;orthogonalLoop=1;jettySize=auto;html=1;entryX=1;entryY=0.5;entryDx=0;entryDy=0;" edge="1" parent="1" source="o45a5cGLSc5WuYnk0j1G-15" target="o45a5cGLSc5WuYnk0j1G-12">
          <mxGeometry relative="1" as="geometry" />
        </mxCell>
        <mxCell id="o45a5cGLSc5WuYnk0j1G-14" style="edgeStyle=none;rounded=0;orthogonalLoop=1;jettySize=auto;html=1;dashed=1;" edge="1" parent="1" source="o45a5cGLSc5WuYnk0j1G-15" target="o45a5cGLSc5WuYnk0j1G-3">
          <mxGeometry relative="1" as="geometry" />
        </mxCell>
        <mxCell id="o45a5cGLSc5WuYnk0j1G-15" value="WIP Inline +&lt;br&gt;Lot: ABC&lt;br&gt;Wafer:04, 05, 06" style="rounded=1;whiteSpace=wrap;html=1;" vertex="1" parent="1">
          <mxGeometry x="692" y="430" width="120" height="60" as="geometry" />
        </mxCell>
        <mxCell id="o45a5cGLSc5WuYnk0j1G-16" style="edgeStyle=none;rounded=0;orthogonalLoop=1;jettySize=auto;html=1;exitX=0;exitY=0.5;exitDx=0;exitDy=0;" edge="1" parent="1" source="o45a5cGLSc5WuYnk0j1G-18">
          <mxGeometry relative="1" as="geometry">
            <mxPoint x="662" y="460" as="targetPoint" />
          </mxGeometry>
        </mxCell>
        <mxCell id="o45a5cGLSc5WuYnk0j1G-17" style="edgeStyle=none;rounded=0;orthogonalLoop=1;jettySize=auto;html=1;exitX=0.5;exitY=0;exitDx=0;exitDy=0;entryX=0.5;entryY=1;entryDx=0;entryDy=0;dashed=1;" edge="1" parent="1" source="o45a5cGLSc5WuYnk0j1G-18" target="o45a5cGLSc5WuYnk0j1G-3">
          <mxGeometry relative="1" as="geometry">
            <Array as="points">
              <mxPoint x="762" y="360" />
            </Array>
          </mxGeometry>
        </mxCell>
        <mxCell id="o45a5cGLSc5WuYnk0j1G-18" value="Wafer WO +&lt;br&gt;5" style="rounded=1;whiteSpace=wrap;html=1;" vertex="1" parent="1">
          <mxGeometry x="692" y="510" width="120" height="60" as="geometry" />
        </mxCell>
        <mxCell id="o45a5cGLSc5WuYnk0j1G-19" value="Wafer Ship + -&lt;br&gt;Lot: ABC&lt;br&gt;Wafer:01,02,04,05,06" style="rounded=1;whiteSpace=wrap;html=1;" vertex="1" parent="1">
          <mxGeometry x="852" y="120" width="148" height="60" as="geometry" />
        </mxCell>
        <mxCell id="o45a5cGLSc5WuYnk0j1G-20" style="edgeStyle=none;rounded=0;orthogonalLoop=1;jettySize=auto;html=1;exitX=0;exitY=0.5;exitDx=0;exitDy=0;entryX=1;entryY=0.5;entryDx=0;entryDy=0;" edge="1" parent="1" source="o45a5cGLSc5WuYnk0j1G-23" target="o45a5cGLSc5WuYnk0j1G-9">
          <mxGeometry relative="1" as="geometry" />
        </mxCell>
        <mxCell id="o45a5cGLSc5WuYnk0j1G-21" style="edgeStyle=none;rounded=0;orthogonalLoop=1;jettySize=auto;html=1;exitX=0;exitY=0.5;exitDx=0;exitDy=0;entryX=1;entryY=0.5;entryDx=0;entryDy=0;" edge="1" parent="1" source="o45a5cGLSc5WuYnk0j1G-23" target="o45a5cGLSc5WuYnk0j1G-15">
          <mxGeometry relative="1" as="geometry" />
        </mxCell>
        <mxCell id="o45a5cGLSc5WuYnk0j1G-22" style="edgeStyle=none;rounded=0;orthogonalLoop=1;jettySize=auto;html=1;entryX=0.5;entryY=1;entryDx=0;entryDy=0;dashed=1;" edge="1" parent="1" source="o45a5cGLSc5WuYnk0j1G-23" target="o45a5cGLSc5WuYnk0j1G-19">
          <mxGeometry relative="1" as="geometry" />
        </mxCell>
        <mxCell id="o45a5cGLSc5WuYnk0j1G-23" value="Wafer Ship + -&lt;br&gt;Lot: ABC&lt;br&gt;Wafer:01,02,04,05,06" style="rounded=1;whiteSpace=wrap;html=1;" vertex="1" parent="1">
          <mxGeometry x="880" y="280" width="120" height="60" as="geometry" />
        </mxCell>
        <mxCell id="o45a5cGLSc5WuYnk0j1G-24" style="edgeStyle=none;rounded=0;orthogonalLoop=1;jettySize=auto;html=1;exitX=0;exitY=0.5;exitDx=0;exitDy=0;entryX=1;entryY=0.5;entryDx=0;entryDy=0;" edge="1" parent="1" source="o45a5cGLSc5WuYnk0j1G-26" target="o45a5cGLSc5WuYnk0j1G-9">
          <mxGeometry relative="1" as="geometry" />
        </mxCell>
        <mxCell id="o45a5cGLSc5WuYnk0j1G-25" style="edgeStyle=none;rounded=0;orthogonalLoop=1;jettySize=auto;html=1;entryX=0.5;entryY=1;entryDx=0;entryDy=0;dashed=1;" edge="1" parent="1" source="o45a5cGLSc5WuYnk0j1G-26" target="o45a5cGLSc5WuYnk0j1G-19">
          <mxGeometry relative="1" as="geometry">
            <Array as="points">
              <mxPoint x="920" y="270" />
            </Array>
          </mxGeometry>
        </mxCell>
        <mxCell id="o45a5cGLSc5WuYnk0j1G-26" value="WIP Inline + -&lt;br&gt;Lot: ABC&lt;br&gt;Wafer:03" style="rounded=1;whiteSpace=wrap;html=1;" vertex="1" parent="1">
          <mxGeometry x="880" y="400" width="120" height="60" as="geometry" />
        </mxCell>
        <mxCell id="o45a5cGLSc5WuYnk0j1G-27" value="Wafer Ship + -&lt;br&gt;Lot: ABC&lt;br&gt;Wafer:03,04,06" style="rounded=1;whiteSpace=wrap;html=1;" vertex="1" parent="1">
          <mxGeometry x="1663" y="120" width="120" height="60" as="geometry" />
        </mxCell>
        <mxCell id="o45a5cGLSc5WuYnk0j1G-28" style="edgeStyle=none;rounded=0;orthogonalLoop=1;jettySize=auto;html=1;dashed=1;" edge="1" parent="1" source="o45a5cGLSc5WuYnk0j1G-29" target="o45a5cGLSc5WuYnk0j1G-27">
          <mxGeometry relative="1" as="geometry" />
        </mxCell>
        <mxCell id="o45a5cGLSc5WuYnk0j1G-29" value="Wafer Ship +&lt;br&gt;Lot: ABC&lt;br&gt;Wafer:03,04,06" style="rounded=1;whiteSpace=wrap;html=1;" vertex="1" parent="1">
          <mxGeometry x="1663" y="410" width="120" height="60" as="geometry" />
        </mxCell>
        <mxCell id="o45a5cGLSc5WuYnk0j1G-30" style="edgeStyle=none;rounded=0;orthogonalLoop=1;jettySize=auto;html=1;exitX=0;exitY=0.5;exitDx=0;exitDy=0;" edge="1" parent="1" source="o45a5cGLSc5WuYnk0j1G-32" target="o45a5cGLSc5WuYnk0j1G-29">
          <mxGeometry relative="1" as="geometry" />
        </mxCell>
        <mxCell id="o45a5cGLSc5WuYnk0j1G-31" style="edgeStyle=none;rounded=0;orthogonalLoop=1;jettySize=auto;html=1;entryX=0.5;entryY=1;entryDx=0;entryDy=0;dashed=1;" edge="1" parent="1" source="o45a5cGLSc5WuYnk0j1G-32" target="o45a5cGLSc5WuYnk0j1G-27">
          <mxGeometry relative="1" as="geometry" />
        </mxCell>
        <mxCell id="o45a5cGLSc5WuYnk0j1G-32" value="Wafer Ship -&lt;br&gt;Lot: ABC&lt;br&gt;Wafer:03,04,06" style="rounded=1;whiteSpace=wrap;html=1;" vertex="1" parent="1">
          <mxGeometry x="1813" y="410" width="120" height="60" as="geometry" />
        </mxCell>
        <mxCell id="o45a5cGLSc5WuYnk0j1G-33" style="edgeStyle=none;rounded=0;orthogonalLoop=1;jettySize=auto;html=1;exitX=0;exitY=0.5;exitDx=0;exitDy=0;entryX=1;entryY=0.5;entryDx=0;entryDy=0;" edge="1" parent="1" source="o45a5cGLSc5WuYnk0j1G-35" target="o45a5cGLSc5WuYnk0j1G-29">
          <mxGeometry relative="1" as="geometry" />
        </mxCell>
        <mxCell id="o45a5cGLSc5WuYnk0j1G-34" style="edgeStyle=none;rounded=0;orthogonalLoop=1;jettySize=auto;html=1;exitX=0.5;exitY=0;exitDx=0;exitDy=0;entryX=0.5;entryY=1;entryDx=0;entryDy=0;dashed=1;" edge="1" parent="1" source="o45a5cGLSc5WuYnk0j1G-35" target="o45a5cGLSc5WuYnk0j1G-27">
          <mxGeometry relative="1" as="geometry" />
        </mxCell>
        <mxCell id="o45a5cGLSc5WuYnk0j1G-35" value="WIP Inline +&lt;br&gt;Lot: ABC&lt;br&gt;Wafer:03" style="rounded=1;whiteSpace=wrap;html=1;" vertex="1" parent="1">
          <mxGeometry x="1813" y="490" width="120" height="60" as="geometry" />
        </mxCell>
        <mxCell id="o45a5cGLSc5WuYnk0j1G-36" style="edgeStyle=none;rounded=0;orthogonalLoop=1;jettySize=auto;html=1;exitX=0;exitY=0.5;exitDx=0;exitDy=0;" edge="1" parent="1" source="o45a5cGLSc5WuYnk0j1G-38">
          <mxGeometry relative="1" as="geometry">
            <mxPoint x="1783" y="440" as="targetPoint" />
          </mxGeometry>
        </mxCell>
        <mxCell id="o45a5cGLSc5WuYnk0j1G-37" style="edgeStyle=none;rounded=0;orthogonalLoop=1;jettySize=auto;html=1;entryX=0.5;entryY=1;entryDx=0;entryDy=0;dashed=1;exitX=0.5;exitY=0;exitDx=0;exitDy=0;" edge="1" parent="1" source="o45a5cGLSc5WuYnk0j1G-38" target="o45a5cGLSc5WuYnk0j1G-27">
          <mxGeometry relative="1" as="geometry" />
        </mxCell>
        <mxCell id="o45a5cGLSc5WuYnk0j1G-38" value="WIP Inline +&lt;br&gt;Lot: ABC&lt;br&gt;Wafer:04, 06" style="rounded=1;whiteSpace=wrap;html=1;" vertex="1" parent="1">
          <mxGeometry x="1813" y="570" width="120" height="60" as="geometry" />
        </mxCell>
        <mxCell id="o45a5cGLSc5WuYnk0j1G-39" style="rounded=0;orthogonalLoop=1;jettySize=auto;html=1;exitX=0;exitY=0.5;exitDx=0;exitDy=0;entryX=1;entryY=0.5;entryDx=0;entryDy=0;" edge="1" parent="1" source="o45a5cGLSc5WuYnk0j1G-40" target="o45a5cGLSc5WuYnk0j1G-23">
          <mxGeometry relative="1" as="geometry" />
        </mxCell>
        <mxCell id="o45a5cGLSc5WuYnk0j1G-40" value="WIP Inline +&lt;br&gt;Lot: ABC&lt;br&gt;Wafer:04,05,06" style="rounded=1;whiteSpace=wrap;html=1;" vertex="1" parent="1">
          <mxGeometry x="1067" y="300" width="120" height="60" as="geometry" />
        </mxCell>
        <mxCell id="o45a5cGLSc5WuYnk0j1G-41" value="Wafer Ship +&lt;br&gt;Lot: ABC&lt;br&gt;Wafer:01,02,03,04,05,06" style="rounded=1;whiteSpace=wrap;html=1;" vertex="1" parent="1">
          <mxGeometry x="1961" y="120" width="160" height="60" as="geometry" />
        </mxCell>
        <mxCell id="o45a5cGLSc5WuYnk0j1G-42" style="edgeStyle=none;rounded=0;orthogonalLoop=1;jettySize=auto;html=1;exitX=0;exitY=0.5;exitDx=0;exitDy=0;entryX=1;entryY=0.5;entryDx=0;entryDy=0;" edge="1" parent="1" source="o45a5cGLSc5WuYnk0j1G-45" target="o45a5cGLSc5WuYnk0j1G-35">
          <mxGeometry relative="1" as="geometry" />
        </mxCell>
        <mxCell id="o45a5cGLSc5WuYnk0j1G-43" style="edgeStyle=none;rounded=0;orthogonalLoop=1;jettySize=auto;html=1;exitX=0;exitY=0.5;exitDx=0;exitDy=0;entryX=1;entryY=0.5;entryDx=0;entryDy=0;" edge="1" parent="1" source="o45a5cGLSc5WuYnk0j1G-45" target="o45a5cGLSc5WuYnk0j1G-38">
          <mxGeometry relative="1" as="geometry" />
        </mxCell>
        <mxCell id="o45a5cGLSc5WuYnk0j1G-44" style="edgeStyle=none;rounded=0;orthogonalLoop=1;jettySize=auto;html=1;entryX=0.5;entryY=1;entryDx=0;entryDy=0;dashed=1;" edge="1" parent="1" source="o45a5cGLSc5WuYnk0j1G-45" target="o45a5cGLSc5WuYnk0j1G-41">
          <mxGeometry relative="1" as="geometry" />
        </mxCell>
        <mxCell id="o45a5cGLSc5WuYnk0j1G-45" value="Wafer Ship +&lt;br&gt;Lot: ABC&lt;br&gt;Wafer:01,02,03,04,05,06" style="rounded=1;whiteSpace=wrap;html=1;" vertex="1" parent="1">
          <mxGeometry x="1961" y="410" width="160" height="60" as="geometry" />
        </mxCell>
        <mxCell id="o45a5cGLSc5WuYnk0j1G-46" value="" style="endArrow=none;dashed=1;html=1;" edge="1" parent="1">
          <mxGeometry width="50" height="50" relative="1" as="geometry">
            <mxPoint x="380" y="210" as="sourcePoint" />
            <mxPoint x="1680" y="200" as="targetPoint" />
          </mxGeometry>
        </mxCell>
        <mxCell id="o45a5cGLSc5WuYnk0j1G-47" value="wip_prev_oid" style="text;html=1;align=center;verticalAlign=middle;resizable=0;points=[];autosize=1;" vertex="1" parent="1">
          <mxGeometry x="480" y="290" width="90" height="20" as="geometry" />
        </mxCell>
        <mxCell id="o45a5cGLSc5WuYnk0j1G-48" value="Wafer Ship + -&lt;br&gt;Lot: ABC&lt;br&gt;Wafer:03" style="rounded=1;whiteSpace=wrap;html=1;" vertex="1" parent="1">
          <mxGeometry x="1235" y="120" width="148" height="60" as="geometry" />
        </mxCell>
        <mxCell id="o45a5cGLSc5WuYnk0j1G-49" style="edgeStyle=none;rounded=0;orthogonalLoop=1;jettySize=auto;html=1;exitX=0;exitY=0.5;exitDx=0;exitDy=0;entryX=1;entryY=0.5;entryDx=0;entryDy=0;" edge="1" parent="1" source="o45a5cGLSc5WuYnk0j1G-50" target="o45a5cGLSc5WuYnk0j1G-26">
          <mxGeometry relative="1" as="geometry" />
        </mxCell>
        <mxCell id="o45a5cGLSc5WuYnk0j1G-50" value="Wafer Ship + -&lt;br&gt;Lot: ABC&lt;br&gt;Wafer:03" style="rounded=1;whiteSpace=wrap;html=1;" vertex="1" parent="1">
          <mxGeometry x="1225" y="280" width="120" height="60" as="geometry" />
        </mxCell>
        <mxCell id="o45a5cGLSc5WuYnk0j1G-51" style="edgeStyle=none;rounded=0;orthogonalLoop=1;jettySize=auto;html=1;entryX=0.5;entryY=1;entryDx=0;entryDy=0;dashed=1;exitX=0.5;exitY=0;exitDx=0;exitDy=0;" edge="1" parent="1" source="o45a5cGLSc5WuYnk0j1G-50" target="o45a5cGLSc5WuYnk0j1G-48">
          <mxGeometry relative="1" as="geometry">
            <Array as="points" />
            <mxPoint x="923.4117647058824" y="420" as="sourcePoint" />
            <mxPoint x="936" y="190" as="targetPoint" />
          </mxGeometry>
        </mxCell>
        <mxCell id="o45a5cGLSc5WuYnk0j1G-52" style="edgeStyle=none;rounded=0;orthogonalLoop=1;jettySize=auto;html=1;exitX=0;exitY=0.5;exitDx=0;exitDy=0;entryX=1;entryY=0.5;entryDx=0;entryDy=0;" edge="1" parent="1" source="o45a5cGLSc5WuYnk0j1G-53" target="o45a5cGLSc5WuYnk0j1G-50">
          <mxGeometry relative="1" as="geometry" />
        </mxCell>
        <mxCell id="o45a5cGLSc5WuYnk0j1G-53" value="WIP Inline + -&lt;br&gt;Lot: ABC&lt;br&gt;Wafer:03" style="rounded=1;whiteSpace=wrap;html=1;" vertex="1" parent="1">
          <mxGeometry x="1385" y="280" width="120" height="60" as="geometry" />
        </mxCell>
        <mxCell id="o45a5cGLSc5WuYnk0j1G-54" style="edgeStyle=none;rounded=0;orthogonalLoop=1;jettySize=auto;html=1;entryX=0.5;entryY=1;entryDx=0;entryDy=0;dashed=1;exitX=0.5;exitY=0;exitDx=0;exitDy=0;" edge="1" parent="1" source="o45a5cGLSc5WuYnk0j1G-53" target="o45a5cGLSc5WuYnk0j1G-48">
          <mxGeometry relative="1" as="geometry">
            <Array as="points" />
            <mxPoint x="1284" y="320" as="sourcePoint" />
            <mxPoint x="1284" y="200" as="targetPoint" />
          </mxGeometry>
        </mxCell>
        <mxCell id="o45a5cGLSc5WuYnk0j1G-55" style="edgeStyle=none;rounded=0;orthogonalLoop=1;jettySize=auto;html=1;exitX=0;exitY=0.5;exitDx=0;exitDy=0;entryX=1;entryY=0.5;entryDx=0;entryDy=0;" edge="1" parent="1" source="o45a5cGLSc5WuYnk0j1G-56" target="o45a5cGLSc5WuYnk0j1G-23">
          <mxGeometry relative="1" as="geometry" />
        </mxCell>
        <mxCell id="o45a5cGLSc5WuYnk0j1G-56" value="WIP Inline + -&lt;br&gt;Lot: ABC&lt;br&gt;Wafer:01,02" style="rounded=1;whiteSpace=wrap;html=1;" vertex="1" parent="1">
          <mxGeometry x="1067" y="230" width="120" height="60" as="geometry" />
        </mxCell>
      </root>
    </mxGraphModel>
  </diagram>
</mxfile>
